<?xml version="1.0" encoding="utf-8"?>
<!-- Generator: Adobe Illustrator 27.5.0, SVG Export Plug-In . SVG Version: 6.00 Build 0)  -->
<svg version="1.1" id="Шар_1" xmlns="http://www.w3.org/2000/svg" xmlns:xlink="http://www.w3.org/1999/xlink" x="0px" y="0px"
	 viewBox="0 0 260.35 160.05" style="enable-background:new 0 0 260.35 160.05;" xml:space="preserve">
<style type="text/css">
	.st0{fill:#FFDC00;}
	.st1{fill:#059CD8;}
	.st2{fill:#FFFFFF;}
	.st3{fill:#199BD8;}
</style>
<g>
	<g>
		<path class="st0" d="M81.5,159.05C37.11,159.05,1,123.66,1,80.17S37.11,1.28,81.5,1.28c6.29,0,11.39,5,11.39,11.16
			s-5.1,11.16-11.39,11.16c-31.83,0-57.72,25.37-57.72,56.56s25.89,56.56,57.72,56.56c6.29,0,11.39,5,11.39,11.16
			S87.79,159.05,81.5,159.05z"/>
	</g>
	<g>
		<ellipse class="st3" cx="81.5" cy="80.17" rx="57.72" ry="56.56"/>
		<g>
			<g>
				<g>
					<path class="st2" d="M124.39,83.11c-1.25-0.67-1.27-1.6-1.21-1.94c0.07-0.35,0.32-0.19,0.47-0.19c0.82,0,1.68-0.24,2.74-1.3
						c1.2-1.2,1.58-3.86-0.26-5.59c-1.98-1.87-4.09-1.54-5.46,0.14c-0.28,0.34-0.96,0.6-1.55,0.58c-0.87-0.04-0.33,0.64-0.33,0.78
						c0,0.14-0.13,0.24-0.21,0.22c-0.3-0.08-0.17,0.35-0.17,0.48c0,0.13-0.12,0.19-0.19,0.19c-0.37,0-0.27,0.33-0.26,0.41
						c0.01,0.09-0.02,0.24-0.14,0.3c-0.12,0.06-0.26,0.34-0.26,0.56c0,0.39,0.37,0.66,0.97,1.11c0.61,0.44,0.69,0.87,0.7,1.17
						c0.01,0.3,0.04,0.79,0.18,1.11c0.16,0.39,0.15,1.1-0.7,1.14c-1.03,0.04-2.86,0.85-3.01,0.9c-0.58,0.2-1.34,0.27-1.95,0.13
						c-0.32-0.22-0.63-0.47-0.92-0.73c-0.12-0.4,0.09-0.84,0.3-1.13c0.34,0.34,0.85,0.32,1.14,0.33c0.29,0.01,1.69-0.21,1.89-0.27
						c0.2-0.07,0.29-0.04,0.41,0c0.53,0.19,1.27,0.25,1.57-0.76c0.3-1.01-0.41-0.73-0.5-0.68c-0.09,0.05-0.21,0.03-0.16-0.05
						c0.13-0.26-0.07-0.23-0.18-0.24c-0.29-0.03-0.66,0.27-0.79,0.38c-0.12,0.11-0.24,0.1-0.29,0.08c-0.38-0.19-1.52,0.08-1.87-0.52
						c0.03-0.16-0.29-2.61-0.46-3.03c-0.03-0.09-0.07-0.24,0.05-0.4c0.29-0.42,1.08,0.03,1.52,0.02c0.52-0.01,0.6-0.22,0.74-0.39
						c0.14-0.16,0.24-0.07,0.31-0.12c0.09-0.06,0.01-0.18,0.04-0.24c0.04-0.06,0.07-0.03,0.16-0.11c0.09-0.07-0.01-0.24,0.03-0.3
						c0.13-0.19,0.48-0.04,0.27-0.53c-0.11-0.27,0.05-0.56,0.2-0.76c0.25-0.32,1.21-1.65-0.49-3.03c-1.63-1.32-3.28-1.21-4.34-0.09
						c-1.06,1.12-0.53,2.77-0.42,3.21c0.11,0.44-0.21,0.83-0.58,1c-0.29,0.13-0.95,0.57-1.45,0.99c0.08-3.54,2.27-6.64,5.63-7.97
						c0.14,0.17,0.3,0.34,0.47,0.5c-0.37,0.27-1.19,0.98-1.19,0.98s0.11,0.02,0.22,0.04c0.08,0.02,0.22,0.06,0.22,0.06
						s0.72-0.6,1.06-0.84c0.26,0.2,0.55,0.36,0.85,0.49c-0.16,0.27-0.57,1.03-0.57,1.03s0.1,0.05,0.18,0.11
						c0.09,0.06,0.14,0.1,0.14,0.1s0.45-0.83,0.61-1.1c0.38,0.12,0.77,0.19,1.17,0.21v1.51c-0.23-0.01-0.79-0.03-1.02-0.05
						l-0.14-0.01l0.08,0.12c0.07,0.09,0.11,0.17,0.15,0.25l0.02,0.03l0.04,0c0.16,0.02,0.68,0.03,0.88,0.04v2.75h0.39v-0.63
						c0.57-0.03,1.05-0.06,1.62-0.11l0.03,0l0.51-0.44L121.02,73c-0.61,0.07-1.14,0.11-1.62,0.14c0,0-0.17,0.01-0.25,0.01v-1.74
						c0.71-0.02,1.41-0.11,2.1-0.29c0.19,0.45,0.54,1.56,0.54,1.56l0.37-0.11c0,0-0.35-1.09-0.54-1.55c0.58-0.18,1.15-0.41,1.68-0.7
						c0.43,0.52,0.8,1.09,1.11,1.69c-0.28,0.13-0.79,0.3-0.79,0.3c0.41,0.04,0.72,0.13,0.72,0.13s0.14-0.06,0.23-0.1
						c0.03,0.08,0.11,0.24,0.11,0.24l0.5,0.22l-0.05-0.14c0,0-0.17-0.39-0.21-0.48c0.53-0.26,1.06-0.55,1.57-0.88
						c0.96,1.43,1.46,3.1,1.46,4.81C127.95,78.96,126.55,81.5,124.39,83.11 M117.97,67.36c-0.55,0.24-1.08,0.52-1.58,0.85
						c-0.15-0.13-0.29-0.27-0.41-0.42C116.61,67.57,117.28,67.43,117.97,67.36 M117.42,68.85c-0.25-0.1-0.49-0.24-0.72-0.39
						c0.51-0.33,1.05-0.61,1.62-0.83C118,68.01,117.7,68.42,117.42,68.85 M118.75,67.69v1.45c-0.33-0.02-0.64-0.08-0.96-0.17
						C118.08,68.53,118.41,68.11,118.75,67.69 M119.14,69.52c0.4-0.02,0.8-0.09,1.18-0.21c0.28,0.47,0.54,0.96,0.77,1.46
						c-0.63,0.16-1.29,0.25-1.95,0.26V69.52z M119.14,67.68c0.34,0.41,0.67,0.84,0.97,1.3c-0.32,0.1-0.64,0.15-0.97,0.17V67.68z
						 M121.2,68.45c-0.23,0.16-0.47,0.29-0.72,0.39c-0.27-0.42-0.57-0.83-0.9-1.23C120.14,67.84,120.69,68.12,121.2,68.45
						 M121.94,67.8c-0.13,0.15-0.27,0.29-0.41,0.42c-0.5-0.33-1.03-0.62-1.57-0.86C120.63,67.43,121.3,67.58,121.94,67.8
						 M123.05,70.02c-0.51,0.26-1.04,0.48-1.58,0.64c-0.23-0.51-0.49-1.02-0.78-1.5c0.3-0.13,0.59-0.29,0.85-0.49
						C122.09,69.07,122.59,69.52,123.05,70.02 M122.32,67.94c0.75,0.29,1.45,0.69,2.1,1.18c-0.32,0.26-0.67,0.5-1.03,0.71
						c-0.46-0.52-0.98-0.99-1.54-1.4C122.01,68.28,122.18,68.12,122.32,67.94 M126.26,70.98c-0.48,0.31-0.99,0.6-1.51,0.85
						c-0.31-0.61-0.69-1.18-1.12-1.71c0.39-0.23,0.75-0.49,1.09-0.76C125.3,69.83,125.82,70.38,126.26,70.98 M118.95,66.92
						c-5.17,0-9.38,4.12-9.38,9.18s4.2,9.18,9.38,9.18c5.17,0,9.38-4.12,9.38-9.18S124.12,66.92,118.95,66.92"/>
				</g>
			</g>
			<g>
				<g>
					<path class="st2" d="M108.72,69.36l-0.15,0.13c-0.55,0.48-1.81,1.73-1.62,3.11c0,0.01,0.02,0.1,0.02,0.1l0.06,0.27l0.18-0.16
						c0.77-0.69,1.35-1.86,1.58-3.2l0.06-0.38L108.72,69.36z"/>
				</g>
			</g>
			<g>
				<g>
					<path class="st2" d="M106.17,71.75l-0.06,0.17c-0.08,0.23-0.25,0.71-0.33,1.36c-0.12,0.91-0.09,2.2,0.72,3.16
						c0,0,0.09,0.11,0.09,0.11l0.09,0.12l0.12-0.59c0.14-1.03-0.04-3.2-0.43-4.17l-0.13-0.33L106.17,71.75z"/>
				</g>
			</g>
			<g>
				<g>
					<path class="st2" d="M105.24,75.48l-0.01,0.17c-0.07,0.93-0.02,3.22,1.87,4.43l0.22,0.14l-0.01-0.26
						c-0.03-0.87-1.07-3.46-1.84-4.39l-0.22-0.26L105.24,75.48z"/>
				</g>
			</g>
			<g>
				<g>
					<path class="st2" d="M105.56,79.57l0.03,0.16c0.28,1.32,1.56,3.45,3.52,4.06l0.26,0.09l-0.09-0.26
						c-0.36-0.98-2.26-3.28-3.48-4.03l-0.27-0.17L105.56,79.57z"/>
				</g>
			</g>
			<g>
				<g>
					<path class="st2" d="M109.52,71.35l-0.16,0.09c-1.46,0.87-2.15,1.94-2.1,3.25l0.01,0.3l0.22-0.17
						c0.79-0.64,1.78-2.29,2.07-3.22l0.11-0.34L109.52,71.35z"/>
				</g>
			</g>
			<g>
				<g>
					<path class="st2" d="M108.66,74.21l-0.11,0.1c-0.37,0.35-1.59,1.61-1.48,3.18c0.02,0.24,0.07,0.5,0.17,0.77l0.09,0.25
						l0.15-0.21c0.58-0.8,1.35-2.91,1.31-3.89l-0.01-0.3L108.66,74.21z"/>
				</g>
			</g>
			<g>
				<g>
					<path class="st2" d="M108.72,76.93l-0.08,0.12c-0.61,0.89-0.93,1.8-0.9,2.65c0.02,0.62,0.22,1.22,0.6,1.77l0.13,0.19l0.11-0.19
						c0.26-0.49,0.48-2.07,0.45-3.32c-0.01-0.44-0.06-0.8-0.13-1.05l-0.08-0.27L108.72,76.93z"/>
				</g>
			</g>
			<g>
				<g>
					<path class="st2" d="M109.43,79.83l-0.04,0.13c-0.19,0.58-0.27,1.14-0.26,1.68c0.03,1.22,0.59,2.16,1.64,2.82l0.18,0.11
						l0.04-0.23c0-0.01,0.01-0.19,0.01-0.19c-0.03-0.98-0.78-3.47-1.37-4.23l-0.16-0.21L109.43,79.83z"/>
				</g>
			</g>
			<g>
				<g>
					<path class="st2" d="M107.37,83.68l0.07,0.12c0.79,1.3,2.13,2.96,4.63,2.54l0.21-0.03l-0.12-0.17
						c-0.47-0.68-3.51-2.36-4.58-2.53l-0.3-0.05L107.37,83.68z"/>
				</g>
			</g>
			<g>
				<g>
					<path class="st2" d="M111.07,86.96L111.07,86.96l-0.39,0.11l0.38,0.15c1.59,0.64,3.59,0.83,4.74,0.45
						c0.43-0.15,0.7-0.38,1.02-0.69c2.04,0.21,3.95,1.86,5.06,3.22l0.05,0.07l0.09-0.03c0.13-0.04,0.32-0.18,0.4-0.27l0.08-0.08
						l-0.07-0.09c-1.16-1.49-2.97-2.41-3.06-2.44C117.74,86.57,114.86,85.96,111.07,86.96"/>
				</g>
			</g>
			<g>
				<g>
					<path class="st2" d="M111.15,82.82l0.02,0.13c0.24,1.47,0.85,3.4,3.38,3.18l0.16-0.01l-0.04-0.15
						c-0.17-0.67-2.49-2.61-3.3-3.15l-0.24-0.12L111.15,82.82z"/>
				</g>
			</g>
			<g>
				<g>
					<path class="st2" d="M129.07,69.24l0.06,0.38c0.24,1.35,0.81,2.51,1.58,3.2l0.18,0.16l0.06-0.27c0,0,0.01-0.09,0.01-0.1
						c0.2-1.38-1.06-2.64-1.61-3.11l-0.15-0.13L129.07,69.24z"/>
				</g>
			</g>
			<g>
				<g>
					<path class="st2" d="M131.7,71.58l-0.13,0.33c-0.39,0.97-0.57,3.13-0.43,4.17l0.12,0.59l0.09-0.12l0.09-0.12
						c0.81-0.96,0.84-2.25,0.72-3.16c-0.08-0.64-0.24-1.13-0.33-1.36l-0.06-0.17L131.7,71.58z"/>
				</g>
			</g>
			<g>
				<g>
					<path class="st2" d="M132.68,75.31l-0.22,0.26c-0.78,0.93-1.81,3.52-1.84,4.39l-0.01,0.26l0.22-0.14
						c1.9-1.22,1.94-3.5,1.87-4.43l-0.01-0.17L132.68,75.31z"/>
				</g>
			</g>
			<g>
				<g>
					<path class="st2" d="M132.4,79.42l-0.27,0.17c-1.22,0.75-3.11,3.05-3.48,4.03l-0.1,0.26l0.27-0.09
						c1.97-0.62,3.24-2.75,3.52-4.06l0.03-0.15L132.4,79.42z"/>
				</g>
			</g>
			<g>
				<g>
					<path class="st2" d="M128.33,71.21l0.1,0.34c0.28,0.94,1.23,2.6,2.01,3.25l0.21,0.18l0.02-0.3c0.08-1.31-0.59-2.38-2.03-3.29
						l-0.15-0.09L128.33,71.21z"/>
				</g>
			</g>
			<g>
				<g>
					<path class="st2" d="M129.17,74.11l-0.01,0.3c-0.04,0.98,0.73,3.09,1.31,3.89l0.16,0.21l0.08-0.25
						c0.1-0.27,0.15-0.53,0.17-0.77c0.1-1.56-1.11-2.83-1.48-3.18l-0.11-0.1L129.17,74.11z"/>
				</g>
			</g>
			<g>
				<g>
					<path class="st2" d="M129.13,76.81l-0.08,0.27c-0.07,0.25-0.12,0.61-0.13,1.05c-0.03,1.25,0.18,2.83,0.44,3.31l0.1,0.19
						l0.13-0.18c0.39-0.55,0.59-1.15,0.6-1.77c0.02-0.84-0.29-1.76-0.9-2.65l-0.09-0.12L129.13,76.81z"/>
				</g>
			</g>
			<g>
				<g>
					<path class="st2" d="M128.46,79.7l-0.16,0.21c-0.58,0.76-1.34,3.24-1.37,4.23c0,0,0.02,0.18,0.02,0.19l0.04,0.23l0.18-0.11
						c1.05-0.66,1.6-1.61,1.63-2.82c0.01-0.54-0.07-1.1-0.26-1.68l-0.04-0.13L128.46,79.7z"/>
				</g>
			</g>
			<g>
				<g>
					<path class="st2" d="M130.64,83.55l-0.29,0.05c-1.08,0.17-4.11,1.85-4.58,2.53l-0.12,0.17l0.21,0.03
						c2.5,0.43,3.84-1.24,4.63-2.54l0.07-0.12L130.64,83.55z"/>
				</g>
			</g>
			<g>
				<g>
					<path class="st2" d="M118.56,87.35c-0.08,0.03-1.9,0.96-3.06,2.44l-0.07,0.09l0.08,0.08c0.08,0.09,0.27,0.23,0.4,0.27
						l0.08,0.02l0.07-0.07c1.11-1.35,3.02-3.01,5.06-3.22c0.32,0.31,0.58,0.54,1.02,0.69c1.16,0.38,3.15,0.19,4.75-0.44l0.37-0.15
						l-0.4-0.11C123.08,85.96,120.2,86.57,118.56,87.35"/>
				</g>
			</g>
			<g>
				<g>
					<path class="st2" d="M126.8,82.69l-0.24,0.12c-0.81,0.55-3.13,2.48-3.31,3.15l-0.04,0.16l0.16,0.01
						c2.53,0.21,3.14-1.72,3.38-3.18l0.02-0.13L126.8,82.69z"/>
				</g>
			</g>
			<g>
				<g>
					<path class="st2" d="M63.04,73.86h2.66v13.77h-2.66V73.86z M62.79,67.83h3.17v2.82h-3.17V67.83z"/>
				</g>
			</g>
			<g>
				<g>
					<path class="st2" d="M42.94,73.87h2.66v13.77H43v-2.03h-0.05c-1.07,1.73-2.86,2.44-4.82,2.44c-2.94,0-4.63-2.19-4.63-4.96
						v-9.22h2.66v8.15c0,2.39,0.56,4.14,3.11,4.14c1.09,0,2.58-0.55,3.14-1.98c0.5-1.29,0.53-2.91,0.53-3.24V73.87z"/>
				</g>
			</g>
			<g>
				<g>
					<path class="st2" d="M50.92,75.91h0.06c0.9-1.73,2.86-2.44,4.26-2.44c0.98,0,5.32,0.25,5.32,4.66v9.52H57.9v-8.67
						c0-2.28-0.98-3.51-3.22-3.51c0,0-1.46-0.08-2.58,1.01c-0.39,0.39-1.12,0.99-1.12,3.68v7.49h-2.66V73.87h2.61V75.91z"/>
				</g>
			</g>
			<g>
				<g>
					<path class="st2" d="M76.85,78.29c-0.14-1.72-0.97-2.91-2.87-2.91c-2.53,0-3.51,2.15-3.51,5.37c0,3.22,0.98,5.36,3.51,5.36
						c1.75,0,2.84-1.11,2.98-3.08h2.65c-0.23,3.08-2.56,4.96-5.65,4.96c-4.48,0-6.26-3.11-6.26-7.14c0-4.01,2.06-7.36,6.49-7.36
						c2.95,0,5.18,1.82,5.31,4.8H76.85z"/>
				</g>
			</g>
			<g>
				<g>
					<path class="st2" d="M90.65,79.44c0.06-2.29-1-4.06-3.56-4.06c-2.2,0-3.5,1.82-3.5,4.06H90.65z M83.58,81.23
						c-0.2,2.4,0.81,4.88,3.5,4.88c2.06,0,3.09-0.78,3.39-2.78h2.79c-0.42,3.11-2.87,4.66-6.21,4.66c-4.49,0-6.27-3.11-6.27-7.14
						c0-4.01,2.06-7.36,6.49-7.36c4.17,0.09,6.15,2.67,6.15,6.46v1.28H83.58z"/>
				</g>
			</g>
			<g>
				<g>
					<path class="st2" d="M96.43,87.59V75.71h-2.4v-1.8h2.4v-2.94c0.09-3,2.4-3.79,4.38-3.79c0.63,0,1.25,0.16,1.89,0.27v2.15
						c-0.45-0.02-0.89-0.08-1.34-0.08c-1.5,0-2.37,0.38-2.28,1.88v2.5h3.23v1.8h-3.23v11.88H96.43z"/>
				</g>
			</g>
		</g>
	</g>
	<g>
		<path class="st3" d="M159.04,95.65c-1.36-0.77-2.39-1.88-3.12-3.32c-0.72-1.44-1.08-3.15-1.08-5.11c0-1.95,0.36-3.64,1.08-5.08
			c0.72-1.44,1.76-2.55,3.12-3.32c1.36-0.77,2.94-1.15,4.77-1.15c1.19,0,2.32,0.18,3.39,0.54c1.07,0.36,2,0.89,2.79,1.58
			c0.34,0.27,0.51,0.62,0.51,1.06c0,0.32-0.09,0.59-0.27,0.81c-0.18,0.22-0.4,0.33-0.65,0.33c-0.31,0-0.61-0.12-0.89-0.35
			c-0.87-0.64-1.66-1.08-2.37-1.34c-0.71-0.26-1.52-0.38-2.43-0.38c-1.99,0-3.51,0.63-4.58,1.88c-1.07,1.26-1.6,3.06-1.6,5.42
			c0,2.37,0.53,4.19,1.6,5.44c1.07,1.26,2.59,1.89,4.58,1.89c0.87,0,1.66-0.13,2.37-0.4s1.52-0.71,2.43-1.33
			c0.36-0.23,0.66-0.35,0.89-0.35c0.25,0,0.47,0.11,0.65,0.33c0.18,0.22,0.27,0.49,0.27,0.81c0,0.44-0.17,0.8-0.51,1.06
			c-0.8,0.69-1.73,1.22-2.79,1.58c-1.07,0.36-2.19,0.54-3.39,0.54C161.99,96.81,160.4,96.42,159.04,95.65z"/>
		<path class="st3" d="M173.84,96.38c-0.25-0.23-0.38-0.54-0.38-0.93V85.02c0-0.42,0.12-0.76,0.35-1.01
			c0.24-0.25,0.56-0.37,0.98-0.37h9.08c0.43,0,0.78,0.12,1.03,0.35c0.25,0.23,0.38,0.55,0.38,0.96v10.52c0,0.39-0.13,0.7-0.38,0.93
			c-0.25,0.23-0.59,0.35-1,0.35s-0.75-0.12-0.99-0.35c-0.24-0.23-0.36-0.54-0.36-0.93v-9.75h-6.34v9.75c0,0.39-0.12,0.7-0.37,0.93
			c-0.24,0.23-0.57,0.35-0.99,0.35C174.42,96.73,174.09,96.61,173.84,96.38z"/>
		<path class="st3" d="M189.37,80.34c-0.31-0.28-0.46-0.65-0.46-1.12c0-0.46,0.15-0.83,0.46-1.1c0.31-0.27,0.72-0.41,1.25-0.41
			c0.51,0,0.92,0.14,1.23,0.41c0.32,0.27,0.47,0.64,0.47,1.1c0,0.46-0.15,0.83-0.46,1.12c-0.31,0.28-0.72,0.42-1.25,0.42
			C190.09,80.77,189.68,80.63,189.37,80.34z M189.63,96.41c-0.26-0.21-0.39-0.53-0.39-0.96V84.67c0-0.42,0.13-0.75,0.39-0.97
			c0.26-0.22,0.59-0.33,0.99-0.33c0.4,0,0.72,0.11,0.98,0.33c0.25,0.22,0.38,0.54,0.38,0.97v10.78c0,0.42-0.13,0.74-0.38,0.96
			s-0.58,0.32-0.98,0.32C190.22,96.73,189.89,96.62,189.63,96.41z"/>
		<path class="st3" d="M199.24,93.47c-0.62,1.48-1.59,2.55-2.91,3.2c-0.16,0.07-0.35,0.11-0.57,0.11c-0.33,0-0.6-0.1-0.81-0.31
			c-0.22-0.2-0.33-0.45-0.33-0.73c0-0.21,0.06-0.42,0.19-0.62c0.13-0.2,0.3-0.37,0.51-0.49c0.6-0.34,1.06-0.79,1.4-1.37
			c0.33-0.57,0.57-1.34,0.72-2.3c0.14-0.96,0.22-2.21,0.22-3.77v-2.18c0-0.42,0.12-0.76,0.35-1.01c0.24-0.25,0.56-0.37,0.98-0.37
			h7.15c0.43,0,0.78,0.12,1.03,0.35c0.25,0.23,0.38,0.55,0.38,0.96v10.52c0,0.39-0.12,0.7-0.37,0.93c-0.24,0.23-0.57,0.35-0.99,0.35
			c-0.42,0-0.75-0.12-1-0.35c-0.25-0.23-0.38-0.54-0.38-0.93v-9.75h-4.63v1.43C200.18,89.89,199.86,92,199.24,93.47z"/>
		<path class="st3" d="M211.91,96.25c-0.25-0.23-0.38-0.55-0.38-0.96V84.65c0-0.39,0.13-0.7,0.38-0.93c0.25-0.23,0.59-0.35,1-0.35
			s0.75,0.12,0.99,0.35c0.24,0.23,0.37,0.54,0.37,0.93v3.48h2.66c3.4,0,5.09,1.35,5.09,4.04c0,0.99-0.25,1.82-0.75,2.48
			c-0.5,0.66-1.14,1.15-1.92,1.47c-0.79,0.32-1.63,0.48-2.53,0.48h-3.88C212.5,96.59,212.16,96.48,211.91,96.25z M218.39,94.07
			c0.59-0.41,0.88-1.03,0.88-1.86c0-1.45-1-2.18-3.01-2.18h-2.03v4.65h2.03C217.1,94.68,217.81,94.48,218.39,94.07z"/>
		<path class="st3" d="M225.12,96.38c-0.25-0.23-0.38-0.54-0.38-0.93V84.65c0-0.39,0.13-0.7,0.38-0.93c0.25-0.23,0.59-0.35,1-0.35
			s0.75,0.12,0.99,0.35c0.24,0.23,0.37,0.54,0.37,0.93v4.25h6.5v-4.25c0-0.39,0.13-0.7,0.38-0.93c0.25-0.23,0.59-0.35,1-0.35
			s0.75,0.12,0.99,0.35c0.24,0.23,0.37,0.54,0.37,0.93l0.03,10.73c0,0.41-0.13,0.74-0.38,0.98c-0.25,0.25-0.59,0.37-1,0.37
			s-0.75-0.12-1-0.37c-0.25-0.25-0.38-0.57-0.38-0.98v-4.35h-6.5v4.43c0,0.39-0.12,0.7-0.37,0.93c-0.24,0.23-0.57,0.35-0.99,0.35
			S225.38,96.61,225.12,96.38z"/>
		<path class="st3" d="M243.06,95.96c-0.98-0.55-1.74-1.33-2.28-2.35c-0.53-1.02-0.8-2.2-0.8-3.54c0-1.36,0.27-2.55,0.8-3.57
			c0.53-1.02,1.29-1.8,2.28-2.35c0.99-0.55,2.13-0.82,3.43-0.82c1.3,0,2.44,0.27,3.43,0.82c0.98,0.55,1.74,1.33,2.28,2.35
			c0.53,1.02,0.8,2.21,0.8,3.57c0,1.35-0.27,2.53-0.8,3.54c-0.53,1.02-1.29,1.8-2.28,2.35c-0.99,0.55-2.13,0.82-3.43,0.82
			C245.19,96.78,244.05,96.51,243.06,95.96z M249.27,93.49c0.64-0.78,0.96-1.92,0.96-3.43c0-1.49-0.33-2.62-0.98-3.41
			c-0.65-0.79-1.57-1.18-2.76-1.18c-1.19,0-2.11,0.39-2.76,1.18c-0.65,0.79-0.98,1.92-0.98,3.41c0,1.5,0.32,2.65,0.96,3.43
			c0.64,0.78,1.57,1.17,2.78,1.17C247.7,94.66,248.63,94.27,249.27,93.49z"/>
	</g>
	<g>
		<path class="st3" d="M156.15,72.82c-0.15-0.16-0.23-0.38-0.23-0.66v-1.68c0-0.27,0.07-0.48,0.22-0.62
			c0.15-0.15,0.36-0.22,0.63-0.22h0.33c0.31-0.68,0.51-1.44,0.62-2.26c0.11-0.83,0.16-1.75,0.16-2.78v-0.82
			c0-0.27,0.07-0.48,0.22-0.62c0.14-0.15,0.35-0.22,0.63-0.22h4.24c0.27,0,0.48,0.07,0.63,0.22c0.14,0.15,0.22,0.35,0.22,0.62v5.86
			h0.33c0.27,0,0.48,0.07,0.63,0.22c0.14,0.15,0.22,0.35,0.22,0.62v1.68c0,0.27-0.08,0.49-0.23,0.65c-0.15,0.17-0.35,0.25-0.61,0.25
			c-0.26,0-0.46-0.08-0.62-0.24c-0.15-0.16-0.23-0.38-0.23-0.66v-1.11h-5.7v1.11c0,0.27-0.08,0.49-0.23,0.65
			c-0.15,0.17-0.36,0.25-0.62,0.25C156.51,73.06,156.3,72.98,156.15,72.82z M162.02,64.33h-2.55v0.2c0,1.13-0.06,2.1-0.19,2.9
			c-0.13,0.81-0.34,1.55-0.63,2.22h3.37V64.33z"/>
		<path class="st3" d="M172.11,62.99c0.16-0.08,0.39-0.12,0.69-0.12c0.27,0,0.49,0.07,0.63,0.22c0.15,0.15,0.22,0.35,0.22,0.62v6.53
			c0,0.27-0.08,0.48-0.25,0.65c-0.16,0.16-0.38,0.24-0.66,0.24c-0.27,0-0.49-0.08-0.65-0.24c-0.16-0.16-0.24-0.38-0.24-0.65v-4.72
			l-3.42,4.86c-0.22,0.31-0.42,0.51-0.59,0.6c-0.18,0.1-0.41,0.14-0.7,0.14c-0.27,0-0.49-0.07-0.63-0.22
			c-0.15-0.15-0.22-0.35-0.22-0.62v-6.53c0-0.27,0.08-0.48,0.25-0.65c0.17-0.16,0.38-0.24,0.66-0.24s0.49,0.08,0.65,0.24
			c0.16,0.16,0.24,0.38,0.24,0.65v4.71l3.56-5.04C171.8,63.21,171.95,63.07,172.11,62.99z"/>
		<path class="st3" d="M177.81,70.87c-0.17-0.16-0.25-0.38-0.25-0.64V64.4h-1.9c-0.58,0-0.87-0.25-0.87-0.74
			c0-0.48,0.29-0.73,0.87-0.73h5.64c0.58,0,0.87,0.24,0.87,0.73c0,0.49-0.29,0.74-0.87,0.74h-1.9v5.83c0,0.27-0.08,0.48-0.25,0.64
			c-0.17,0.16-0.39,0.24-0.67,0.24C178.2,71.11,177.97,71.03,177.81,70.87z"/>
		<path class="st3" d="M188.13,70.88c-0.16-0.16-0.24-0.38-0.24-0.65v-2.22h-0.88c-0.59,0-1.03,0.27-1.34,0.81l-1.08,1.85
			c-0.09,0.15-0.19,0.26-0.32,0.33c-0.13,0.07-0.26,0.11-0.41,0.11c-0.23,0-0.43-0.08-0.62-0.24c-0.18-0.16-0.28-0.34-0.28-0.56
			c0-0.15,0.04-0.3,0.13-0.44l0.69-1.13c0.19-0.31,0.41-0.55,0.65-0.73c0.25-0.18,0.5-0.31,0.77-0.37c-0.63-0.11-1.12-0.37-1.47-0.8
			c-0.36-0.43-0.53-0.9-0.53-1.43c0-0.79,0.26-1.4,0.79-1.83c0.53-0.43,1.28-0.64,2.25-0.64h2.58c0.27,0,0.49,0.07,0.64,0.22
			c0.15,0.15,0.22,0.35,0.22,0.62v6.46c0,0.27-0.08,0.48-0.25,0.65c-0.16,0.16-0.38,0.24-0.66,0.24
			C188.51,71.12,188.29,71.04,188.13,70.88z M187.91,64.31h-1.42c-0.52,0-0.91,0.11-1.18,0.32c-0.27,0.21-0.4,0.51-0.4,0.9
			c0,0.38,0.12,0.67,0.36,0.85c0.24,0.18,0.62,0.28,1.14,0.28h1.49V64.31z"/>
		<path class="st3" d="M191.43,63.11c0.16-0.16,0.38-0.24,0.66-0.24c0.27,0,0.49,0.08,0.65,0.24c0.16,0.16,0.24,0.38,0.24,0.65v1.66
			c0,0.51,0.14,0.88,0.41,1.11c0.27,0.23,0.71,0.35,1.29,0.35c0.49,0,0.88-0.05,1.16-0.14v-2.98c0-0.27,0.08-0.48,0.25-0.65
			c0.17-0.16,0.38-0.24,0.65-0.24c0.27,0,0.49,0.08,0.66,0.24c0.16,0.16,0.25,0.38,0.25,0.65v6.48c0,0.27-0.08,0.48-0.25,0.65
			c-0.17,0.16-0.38,0.24-0.66,0.24s-0.49-0.08-0.65-0.24c-0.16-0.16-0.24-0.38-0.24-0.65V68.1c-0.16,0.05-0.4,0.09-0.72,0.13
			c-0.31,0.04-0.6,0.06-0.85,0.06c-0.96,0-1.71-0.2-2.27-0.62c-0.56-0.41-0.84-1.06-0.84-1.94v-1.97
			C191.19,63.48,191.27,63.27,191.43,63.11z"/>
		<path class="st3" d="M207.33,70.33c0,0.21-0.09,0.4-0.26,0.55c-0.18,0.15-0.38,0.22-0.61,0.22c-0.15,0-0.29-0.04-0.42-0.12
			c-0.13-0.08-0.24-0.2-0.31-0.36l-0.62-1.36h-3.98l-0.62,1.36c-0.07,0.16-0.17,0.28-0.3,0.36c-0.13,0.08-0.27,0.12-0.43,0.12
			c-0.23,0-0.43-0.07-0.61-0.22c-0.18-0.15-0.27-0.33-0.27-0.55c0-0.11,0.03-0.23,0.09-0.37l3.17-6.53
			c0.09-0.18,0.21-0.32,0.39-0.42c0.17-0.1,0.36-0.14,0.55-0.14c0.2,0,0.39,0.05,0.56,0.15c0.17,0.1,0.31,0.24,0.4,0.41l3.17,6.53
			C207.3,70.1,207.33,70.22,207.33,70.33z M201.75,67.9h2.74l-1.36-2.99L201.75,67.9z"/>
		<path class="st3" d="M213.79,70.87c-0.17-0.16-0.25-0.38-0.25-0.64V64.4h-1.9c-0.58,0-0.87-0.25-0.87-0.74
			c0-0.48,0.29-0.73,0.87-0.73h5.64c0.58,0,0.87,0.24,0.87,0.73c0,0.49-0.29,0.74-0.87,0.74h-1.9v5.83c0,0.27-0.08,0.48-0.25,0.64
			c-0.17,0.16-0.39,0.24-0.67,0.24C214.18,71.11,213.96,71.03,213.79,70.87z"/>
		<path class="st3" d="M220.62,70.65c-0.61-0.34-1.08-0.83-1.4-1.45c-0.33-0.63-0.49-1.36-0.49-2.21s0.17-1.58,0.49-2.21
			c0.33-0.63,0.8-1.11,1.4-1.45c0.61-0.34,1.32-0.51,2.14-0.51s1.54,0.17,2.14,0.51c0.61,0.34,1.08,0.82,1.4,1.45
			c0.33,0.63,0.49,1.36,0.49,2.21s-0.16,1.58-0.49,2.21c-0.33,0.63-0.8,1.11-1.4,1.45c-0.61,0.34-1.32,0.51-2.14,0.51
			S221.23,70.99,220.62,70.65z M224.39,69.05c0.4-0.48,0.59-1.16,0.59-2.06s-0.2-1.58-0.59-2.06c-0.39-0.47-0.94-0.71-1.63-0.71
			c-0.7,0-1.24,0.24-1.63,0.71c-0.39,0.47-0.58,1.16-0.58,2.06s0.2,1.59,0.59,2.06c0.39,0.48,0.93,0.71,1.62,0.71
			C223.45,69.76,224,69.53,224.39,69.05z"/>
		<path class="st3" d="M228.38,63.11c0.16-0.16,0.38-0.24,0.66-0.24c0.27,0,0.49,0.08,0.65,0.24c0.16,0.16,0.24,0.38,0.24,0.65v1.66
			c0,0.51,0.14,0.88,0.41,1.11c0.27,0.23,0.71,0.35,1.29,0.35c0.49,0,0.88-0.05,1.16-0.14v-2.98c0-0.27,0.08-0.48,0.25-0.65
			c0.17-0.16,0.38-0.24,0.65-0.24c0.27,0,0.49,0.08,0.66,0.24c0.16,0.16,0.25,0.38,0.25,0.65v6.48c0,0.27-0.08,0.48-0.25,0.65
			c-0.17,0.16-0.38,0.24-0.66,0.24c-0.27,0-0.49-0.08-0.65-0.24c-0.16-0.16-0.24-0.38-0.24-0.65V68.1c-0.16,0.05-0.4,0.09-0.72,0.13
			c-0.31,0.04-0.6,0.06-0.85,0.06c-0.96,0-1.71-0.2-2.27-0.62c-0.56-0.41-0.84-1.06-0.84-1.94v-1.97
			C228.13,63.48,228.22,63.27,228.38,63.11z"/>
		<path class="st3" d="M236.71,70.88c-0.16-0.16-0.25-0.38-0.25-0.66v-6.47c0-0.27,0.08-0.48,0.25-0.65
			c0.17-0.16,0.38-0.24,0.66-0.24c0.27,0,0.49,0.08,0.65,0.24c0.16,0.16,0.24,0.38,0.24,0.65v2.46h0.82l2.5-3.01
			c0.18-0.22,0.4-0.33,0.66-0.33c0.21,0,0.4,0.07,0.55,0.22c0.16,0.15,0.24,0.32,0.24,0.53c0,0.18-0.08,0.37-0.22,0.54l-2.05,2.4
			c0.29,0.12,0.52,0.24,0.69,0.36c0.17,0.13,0.32,0.29,0.45,0.48s0.32,0.5,0.56,0.91l0.83,1.47c0.09,0.17,0.14,0.33,0.14,0.48
			c0,0.24-0.09,0.44-0.26,0.6c-0.17,0.16-0.37,0.24-0.6,0.24c-0.31,0-0.56-0.16-0.75-0.48l-1.14-2.02c-0.2-0.35-0.41-0.6-0.62-0.75
			c-0.21-0.15-0.52-0.22-0.92-0.22h-0.89v2.58c0,0.27-0.08,0.49-0.25,0.65c-0.16,0.17-0.38,0.25-0.65,0.25
			C237.09,71.12,236.87,71.04,236.71,70.88z"/>
		<path class="st3" d="M253,70.33c0,0.21-0.09,0.4-0.26,0.55c-0.18,0.15-0.38,0.22-0.61,0.22c-0.15,0-0.29-0.04-0.42-0.12
			c-0.13-0.08-0.24-0.2-0.31-0.36l-0.62-1.36h-3.98l-0.62,1.36c-0.07,0.16-0.17,0.28-0.3,0.36c-0.13,0.08-0.27,0.12-0.43,0.12
			c-0.23,0-0.43-0.07-0.61-0.22c-0.18-0.15-0.27-0.33-0.27-0.55c0-0.11,0.03-0.23,0.09-0.37l3.17-6.53
			c0.09-0.18,0.21-0.32,0.39-0.42c0.17-0.1,0.36-0.14,0.55-0.14c0.2,0,0.39,0.05,0.56,0.15c0.17,0.1,0.31,0.24,0.4,0.41l3.17,6.53
			C252.97,70.1,253,70.22,253,70.33z M247.41,67.9h2.74l-1.36-2.99L247.41,67.9z"/>
	</g>
</g>
</svg>
