<?xml version="1.0" encoding="utf-8"?>
<!-- Generator: Adobe Illustrator 27.5.0, SVG Export Plug-In . SVG Version: 6.00 Build 0)  -->
<svg version="1.1" id="Шар_1" xmlns="http://www.w3.org/2000/svg" xmlns:xlink="http://www.w3.org/1999/xlink" x="0px" y="0px"
	 viewBox="0 0 158.44 226" style="enable-background:new 0 0 158.44 226;" xml:space="preserve">
<style type="text/css">
	.st0{fill:#FFDC00;}
	.st1{fill:#059CD8;}
	.st2{fill:#FFFFFF;}
	.st3{fill:#199BD8;}
</style>
<g>
	<g>
		<path class="st0" d="M83,161.35c-44.83,0-81.31-35.74-81.31-79.67S38.17,2,83,2c6.35,0,11.51,5.05,11.51,11.27
			S89.36,24.55,83,24.55c-32.15,0-58.3,25.63-58.3,57.12S50.86,138.8,83,138.8c6.35,0,11.51,5.05,11.51,11.27
			S89.36,161.35,83,161.35z"/>
	</g>
	<g>
		<ellipse class="st1" cx="83" cy="81.67" rx="58.3" ry="57.13"/>
		<g>
			<g>
				<g>
					<path class="st2" d="M126.32,84.65c-1.26-0.68-1.29-1.62-1.22-1.96c0.07-0.35,0.32-0.2,0.47-0.2c0.83,0,1.7-0.24,2.77-1.32
						c1.21-1.21,1.59-3.9-0.27-5.65c-2-1.89-4.13-1.56-5.51,0.14c-0.28,0.35-0.97,0.6-1.56,0.58c-0.88-0.04-0.33,0.65-0.33,0.79
						c0,0.15-0.13,0.24-0.21,0.22c-0.3-0.08-0.18,0.35-0.18,0.48s-0.12,0.2-0.19,0.2c-0.37,0-0.27,0.33-0.26,0.42
						c0.01,0.09-0.02,0.24-0.14,0.31c-0.12,0.06-0.26,0.35-0.26,0.57c0,0.4,0.37,0.67,0.98,1.12c0.62,0.45,0.69,0.87,0.7,1.18
						c0.01,0.3,0.04,0.8,0.18,1.13c0.16,0.4,0.15,1.12-0.71,1.15c-1.04,0.04-2.88,0.86-3.04,0.91c-0.59,0.2-1.36,0.28-1.97,0.13
						c-0.33-0.22-0.64-0.47-0.93-0.73c-0.12-0.41,0.09-0.85,0.3-1.15c0.35,0.34,0.86,0.32,1.15,0.33c0.29,0.01,1.71-0.21,1.91-0.27
						c0.2-0.07,0.29-0.04,0.41,0c0.54,0.19,1.28,0.25,1.59-0.77c0.3-1.02-0.41-0.73-0.5-0.69c-0.09,0.05-0.21,0.03-0.17-0.05
						c0.13-0.26-0.07-0.23-0.18-0.24c-0.29-0.03-0.67,0.27-0.79,0.38c-0.12,0.11-0.25,0.1-0.29,0.08c-0.39-0.19-1.53,0.08-1.89-0.53
						c0.03-0.16-0.3-2.64-0.46-3.07c-0.03-0.09-0.07-0.24,0.05-0.4c0.29-0.43,1.09,0.03,1.53,0.02c0.52-0.01,0.61-0.23,0.75-0.4
						c0.14-0.17,0.24-0.07,0.31-0.12c0.09-0.06,0.01-0.18,0.04-0.25c0.04-0.06,0.08-0.03,0.16-0.11c0.09-0.07-0.01-0.24,0.03-0.3
						c0.13-0.19,0.48-0.04,0.27-0.54c-0.11-0.27,0.05-0.57,0.21-0.77c0.25-0.32,1.23-1.67-0.49-3.06c-1.64-1.33-3.31-1.23-4.38-0.09
						c-1.07,1.14-0.54,2.8-0.42,3.24c0.11,0.44-0.21,0.83-0.58,1.01c-0.29,0.14-0.96,0.57-1.47,1c0.08-3.57,2.29-6.71,5.69-8.05
						c0.14,0.18,0.3,0.35,0.48,0.5c-0.37,0.27-1.2,0.99-1.2,0.99s0.11,0.02,0.22,0.04c0.08,0.02,0.23,0.06,0.23,0.06
						s0.72-0.61,1.07-0.85c0.27,0.2,0.55,0.36,0.86,0.49c-0.16,0.28-0.58,1.04-0.58,1.04s0.1,0.05,0.18,0.11
						c0.09,0.06,0.14,0.11,0.14,0.11s0.45-0.83,0.62-1.11c0.38,0.12,0.78,0.2,1.18,0.21v1.53c-0.23-0.01-0.8-0.03-1.03-0.05
						l-0.15-0.01l0.08,0.12c0.07,0.09,0.11,0.18,0.15,0.25l0.02,0.03l0.04,0c0.17,0.02,0.69,0.04,0.89,0.04v2.78h0.39v-0.64
						c0.58-0.03,1.06-0.06,1.64-0.11l0.03,0l0.51-0.44l-0.28,0.02c-0.61,0.07-1.15,0.11-1.64,0.14c0,0-0.17,0.01-0.25,0.01v-1.76
						c0.71-0.02,1.43-0.11,2.12-0.29c0.19,0.46,0.55,1.57,0.55,1.57l0.37-0.11c0,0-0.36-1.11-0.54-1.56
						c0.59-0.18,1.16-0.42,1.7-0.71c0.43,0.52,0.81,1.1,1.12,1.71c-0.28,0.13-0.8,0.3-0.8,0.3c0.41,0.04,0.72,0.14,0.72,0.14
						s0.14-0.06,0.24-0.1c0.04,0.08,0.11,0.24,0.11,0.24l0.51,0.22l-0.05-0.14c0,0-0.17-0.4-0.21-0.49
						c0.54-0.26,1.07-0.56,1.58-0.89c0.96,1.45,1.48,3.13,1.48,4.86C129.91,80.45,128.5,83.02,126.32,84.65 M119.83,68.73
						c-0.56,0.24-1.09,0.53-1.6,0.86c-0.15-0.13-0.29-0.27-0.42-0.42C118.46,68.95,119.14,68.81,119.83,68.73 M119.28,70.24
						c-0.26-0.1-0.5-0.24-0.73-0.4c0.51-0.33,1.06-0.61,1.63-0.84C119.87,69.39,119.56,69.81,119.28,70.24 M120.63,69.08v1.47
						c-0.33-0.02-0.65-0.08-0.97-0.17C119.95,69.92,120.28,69.49,120.63,69.08 M121.02,70.92c0.41-0.02,0.81-0.09,1.19-0.22
						c0.29,0.47,0.55,0.97,0.77,1.47c-0.64,0.16-1.31,0.25-1.97,0.27V70.92z M121.02,69.06c0.35,0.41,0.67,0.85,0.98,1.31
						c-0.32,0.1-0.65,0.15-0.98,0.17V69.06z M123.1,69.84c-0.23,0.16-0.47,0.29-0.73,0.4c-0.28-0.42-0.58-0.84-0.91-1.24
						C122.03,69.22,122.59,69.51,123.1,69.84 M123.84,69.18c-0.13,0.15-0.27,0.29-0.42,0.42c-0.51-0.34-1.04-0.62-1.59-0.86
						C122.52,68.81,123.2,68.96,123.84,69.18 M124.96,71.43c-0.51,0.27-1.05,0.48-1.6,0.65c-0.23-0.52-0.5-1.03-0.79-1.51
						c0.3-0.13,0.59-0.3,0.86-0.49C124,70.47,124.51,70.92,124.96,71.43 M124.23,69.32c0.76,0.3,1.47,0.7,2.12,1.19
						c-0.33,0.26-0.68,0.51-1.04,0.72c-0.47-0.52-0.99-1-1.56-1.41C123.92,69.67,124.08,69.5,124.23,69.32 M128.21,72.4
						c-0.49,0.32-1,0.61-1.53,0.86c-0.31-0.61-0.69-1.19-1.13-1.73c0.39-0.23,0.76-0.49,1.11-0.77
						C127.24,71.23,127.77,71.79,128.21,72.4 M120.82,68.3c-5.22,0-9.47,4.16-9.47,9.27c0,5.11,4.25,9.27,9.47,9.27
						c5.22,0,9.47-4.16,9.47-9.27C130.3,72.46,126.04,68.3,120.82,68.3"/>
				</g>
			</g>
			<g>
				<g>
					<path class="st2" d="M110.49,70.76l-0.15,0.13c-0.56,0.48-1.83,1.75-1.63,3.14c0,0.01,0.02,0.1,0.02,0.1l0.06,0.28l0.18-0.16
						c0.78-0.7,1.36-1.88,1.6-3.24l0.06-0.38L110.49,70.76z"/>
				</g>
			</g>
			<g>
				<g>
					<path class="st2" d="M107.92,73.17l-0.06,0.17c-0.09,0.23-0.25,0.72-0.33,1.37c-0.12,0.92-0.09,2.22,0.73,3.19
						c0,0,0.09,0.12,0.09,0.12l0.09,0.12l0.12-0.59c0.14-1.04-0.04-3.23-0.43-4.21L107.98,73L107.92,73.17z"/>
				</g>
			</g>
			<g>
				<g>
					<path class="st2" d="M106.98,76.93l-0.01,0.17c-0.07,0.94-0.02,3.25,1.89,4.48l0.23,0.15l-0.01-0.27
						c-0.03-0.88-1.08-3.5-1.86-4.43l-0.22-0.26L106.98,76.93z"/>
				</g>
			</g>
			<g>
				<g>
					<path class="st2" d="M107.3,81.07l0.03,0.16c0.28,1.33,1.57,3.48,3.56,4.1l0.27,0.09l-0.1-0.26c-0.37-0.99-2.29-3.31-3.52-4.07
						l-0.28-0.17L107.3,81.07z"/>
				</g>
			</g>
			<g>
				<g>
					<path class="st2" d="M111.3,72.76l-0.16,0.09c-1.48,0.88-2.18,1.95-2.12,3.28l0.01,0.3l0.22-0.18c0.79-0.65,1.8-2.31,2.09-3.25
						l0.11-0.34L111.3,72.76z"/>
				</g>
			</g>
			<g>
				<g>
					<path class="st2" d="M110.43,75.66l-0.11,0.1c-0.38,0.35-1.61,1.63-1.5,3.21c0.02,0.24,0.07,0.5,0.17,0.78l0.09,0.25l0.16-0.22
						c0.59-0.81,1.36-2.94,1.32-3.93l-0.01-0.3L110.43,75.66z"/>
				</g>
			</g>
			<g>
				<g>
					<path class="st2" d="M110.49,78.4l-0.08,0.12c-0.62,0.9-0.93,1.82-0.91,2.67c0.02,0.63,0.22,1.23,0.61,1.79l0.13,0.19l0.11-0.2
						c0.27-0.49,0.48-2.09,0.45-3.35c-0.01-0.45-0.06-0.81-0.13-1.06l-0.08-0.28L110.49,78.4z"/>
				</g>
			</g>
			<g>
				<g>
					<path class="st2" d="M111.21,81.33l-0.04,0.13c-0.19,0.58-0.27,1.15-0.26,1.69c0.03,1.23,0.59,2.18,1.65,2.85l0.18,0.11
						l0.04-0.23c0-0.01,0.01-0.19,0.01-0.19c-0.03-0.99-0.79-3.51-1.38-4.27l-0.16-0.21L111.21,81.33z"/>
				</g>
			</g>
			<g>
				<g>
					<path class="st2" d="M109.12,85.22l0.08,0.13c0.79,1.31,2.15,2.99,4.68,2.56l0.21-0.04l-0.12-0.18
						c-0.47-0.69-3.54-2.38-4.63-2.56l-0.3-0.05L109.12,85.22z"/>
				</g>
			</g>
			<g>
				<g>
					<path class="st2" d="M112.86,88.53L112.86,88.53l-0.4,0.11l0.39,0.15c1.61,0.64,3.62,0.83,4.79,0.45
						c0.44-0.15,0.71-0.38,1.03-0.69c2.06,0.21,3.98,1.88,5.11,3.25l0.06,0.07l0.09-0.03c0.13-0.04,0.32-0.19,0.4-0.27l0.08-0.08
						l-0.07-0.09c-1.17-1.5-3-2.43-3.09-2.47C119.6,88.13,116.69,87.52,112.86,88.53"/>
				</g>
			</g>
			<g>
				<g>
					<path class="st2" d="M112.95,84.35l0.02,0.13c0.24,1.48,0.85,3.43,3.42,3.21l0.16-0.01l-0.04-0.15
						c-0.18-0.67-2.52-2.63-3.34-3.18l-0.25-0.12L112.95,84.35z"/>
				</g>
			</g>
			<g>
				<g>
					<path class="st2" d="M131.04,70.63l0.06,0.38c0.24,1.36,0.82,2.54,1.6,3.24l0.18,0.16l0.06-0.28c0,0,0.02-0.09,0.02-0.1
						c0.2-1.39-1.07-2.66-1.63-3.14l-0.15-0.13L131.04,70.63z"/>
				</g>
			</g>
			<g>
				<g>
					<path class="st2" d="M133.7,73l-0.14,0.33c-0.39,0.98-0.57,3.17-0.43,4.21l0.12,0.59l0.09-0.12l0.09-0.12
						c0.82-0.97,0.84-2.27,0.72-3.19c-0.08-0.65-0.24-1.14-0.33-1.37l-0.06-0.17L133.7,73z"/>
				</g>
			</g>
			<g>
				<g>
					<path class="st2" d="M134.7,76.77l-0.22,0.26c-0.79,0.94-1.83,3.56-1.86,4.43l-0.02,0.27l0.23-0.14
						c1.92-1.23,1.96-3.54,1.89-4.48l-0.01-0.17L134.7,76.77z"/>
				</g>
			</g>
			<g>
				<g>
					<path class="st2" d="M134.41,80.91l-0.28,0.17c-1.23,0.76-3.15,3.08-3.52,4.07l-0.1,0.27l0.27-0.09
						c1.99-0.62,3.28-2.77,3.55-4.1l0.04-0.16L134.41,80.91z"/>
				</g>
			</g>
			<g>
				<g>
					<path class="st2" d="M130.3,72.62l0.1,0.34c0.28,0.95,1.25,2.62,2.03,3.29l0.22,0.18l0.02-0.3c0.08-1.32-0.59-2.4-2.05-3.32
						l-0.16-0.09L130.3,72.62z"/>
				</g>
			</g>
			<g>
				<g>
					<path class="st2" d="M131.14,75.55l-0.02,0.3c-0.04,0.99,0.73,3.12,1.32,3.93l0.16,0.22l0.08-0.25
						c0.1-0.27,0.15-0.53,0.17-0.78c0.1-1.58-1.13-2.86-1.5-3.21l-0.11-0.1L131.14,75.55z"/>
				</g>
			</g>
			<g>
				<g>
					<path class="st2" d="M131.11,78.28l-0.08,0.28c-0.07,0.25-0.12,0.62-0.13,1.06c-0.03,1.26,0.18,2.86,0.45,3.35l0.11,0.2
						l0.13-0.19c0.39-0.56,0.59-1.16,0.61-1.79c0.02-0.85-0.29-1.77-0.91-2.67l-0.09-0.12L131.11,78.28z"/>
				</g>
			</g>
			<g>
				<g>
					<path class="st2" d="M130.43,81.2l-0.16,0.21c-0.59,0.77-1.35,3.27-1.38,4.27c0,0,0.02,0.18,0.02,0.19l0.04,0.24l0.18-0.11
						c1.06-0.66,1.62-1.62,1.65-2.85c0.01-0.54-0.07-1.11-0.26-1.69l-0.04-0.13L130.43,81.2z"/>
				</g>
			</g>
			<g>
				<g>
					<path class="st2" d="M132.64,85.09l-0.3,0.05c-1.09,0.17-4.15,1.86-4.62,2.56l-0.12,0.18l0.21,0.04
						c2.53,0.43,3.88-1.25,4.68-2.56l0.08-0.13L132.64,85.09z"/>
				</g>
			</g>
			<g>
				<g>
					<path class="st2" d="M120.43,88.92c-0.08,0.04-1.92,0.96-3.09,2.47l-0.07,0.09l0.08,0.08c0.08,0.09,0.28,0.23,0.4,0.27
						l0.08,0.02l0.07-0.07c1.12-1.37,3.05-3.04,5.11-3.25c0.33,0.31,0.59,0.54,1.03,0.69c1.17,0.39,3.19,0.19,4.8-0.45l0.38-0.15
						l-0.4-0.11C125,87.52,122.08,88.13,120.43,88.92"/>
				</g>
			</g>
			<g>
				<g>
					<path class="st2" d="M128.75,84.22l-0.24,0.12c-0.82,0.55-3.16,2.51-3.34,3.18l-0.04,0.16l0.16,0.01
						c2.55,0.22,3.17-1.73,3.41-3.21l0.02-0.13L128.75,84.22z"/>
				</g>
			</g>
			<g>
				<g>
					<path class="st2" d="M64.36,75.31h2.69v13.9h-2.69V75.31z M64.1,69.21h3.2v2.85h-3.2V69.21z"/>
				</g>
			</g>
			<g>
				<g>
					<path class="st2" d="M44.06,75.32h2.69v13.91h-2.63v-2.05h-0.06c-1.08,1.75-2.89,2.47-4.87,2.47c-2.97,0-4.67-2.22-4.67-5.01
						v-9.31h2.69v8.23c0,2.41,0.57,4.18,3.14,4.18c1.1,0,2.6-0.56,3.17-2c0.51-1.3,0.54-2.94,0.54-3.27V75.32z"/>
				</g>
			</g>
			<g>
				<g>
					<path class="st2" d="M52.11,77.37h0.06c0.9-1.75,2.89-2.47,4.3-2.47c0.99,0,5.38,0.25,5.38,4.71v9.61h-2.69v-8.75
						c0-2.3-0.99-3.54-3.25-3.54c0,0-1.47-0.08-2.6,1.02c-0.39,0.39-1.13,1-1.13,3.71v7.56h-2.69V75.32h2.63V77.37z"/>
				</g>
			</g>
			<g>
				<g>
					<path class="st2" d="M78.3,79.78c-0.14-1.73-0.98-2.94-2.9-2.94c-2.56,0-3.54,2.17-3.54,5.42c0,3.25,0.99,5.42,3.54,5.42
						c1.77,0,2.86-1.12,3.01-3.11h2.67c-0.23,3.11-2.58,5.01-5.71,5.01c-4.52,0-6.32-3.14-6.32-7.21c0-4.05,2.08-7.43,6.55-7.43
						c2.98,0,5.23,1.84,5.37,4.84H78.3z"/>
				</g>
			</g>
			<g>
				<g>
					<path class="st2" d="M92.24,80.93c0.06-2.31-1.01-4.1-3.6-4.1c-2.22,0-3.54,1.84-3.54,4.1H92.24z M85.1,82.75
						c-0.2,2.42,0.81,4.93,3.54,4.93c2.08,0,3.13-0.79,3.43-2.81h2.82c-0.42,3.14-2.9,4.71-6.27,4.71c-4.53,0-6.33-3.14-6.33-7.21
						c0-4.05,2.09-7.43,6.56-7.43c4.22,0.09,6.21,2.7,6.21,6.52v1.29H85.1z"/>
				</g>
			</g>
			<g>
				<g>
					<path class="st2" d="M98.07,89.17v-12h-2.42v-1.82h2.42v-2.97c0.09-3.03,2.42-3.83,4.42-3.83c0.64,0,1.26,0.16,1.91,0.27V71
						c-0.45-0.03-0.9-0.08-1.35-0.08c-1.52,0-2.39,0.39-2.31,1.9v2.53h3.26v1.82h-3.26v12H98.07z"/>
				</g>
			</g>
		</g>
	</g>
	<g>
		<path class="st1" d="M35.76,220.18c-1.37-0.78-2.42-1.89-3.15-3.35c-0.73-1.46-1.1-3.18-1.1-5.16c0-1.97,0.36-3.68,1.1-5.14
			c0.73-1.46,1.78-2.57,3.15-3.35c1.37-0.78,2.97-1.17,4.82-1.17c1.2,0,2.34,0.18,3.42,0.55c1.08,0.37,2.02,0.9,2.82,1.6
			c0.35,0.27,0.52,0.63,0.52,1.07c0,0.32-0.09,0.59-0.27,0.82c-0.18,0.22-0.4,0.34-0.66,0.34c-0.31,0-0.61-0.12-0.9-0.35
			c-0.88-0.64-1.67-1.09-2.39-1.35c-0.72-0.26-1.54-0.39-2.45-0.39c-2.01,0-3.55,0.63-4.63,1.9c-1.08,1.27-1.61,3.09-1.61,5.47
			c0,2.4,0.54,4.23,1.61,5.5c1.08,1.27,2.62,1.9,4.63,1.9c0.88,0,1.67-0.13,2.39-0.4c0.72-0.27,1.54-0.71,2.45-1.34
			c0.36-0.23,0.67-0.35,0.9-0.35c0.26,0,0.47,0.11,0.66,0.33c0.18,0.22,0.27,0.5,0.27,0.82c0,0.45-0.17,0.8-0.52,1.07
			c-0.8,0.7-1.74,1.23-2.82,1.6c-1.08,0.37-2.22,0.55-3.42,0.55C38.73,221.34,37.13,220.95,35.76,220.18z"/>
		<path class="st1" d="M50.7,220.91c-0.26-0.23-0.38-0.55-0.38-0.94v-10.54c0-0.43,0.12-0.77,0.36-1.02
			c0.24-0.25,0.57-0.38,0.99-0.38h9.17c0.44,0,0.78,0.12,1.04,0.35c0.26,0.23,0.38,0.55,0.38,0.97v10.62c0,0.39-0.13,0.71-0.38,0.94
			c-0.26,0.23-0.59,0.35-1.01,0.35s-0.75-0.12-1-0.35c-0.25-0.23-0.37-0.55-0.37-0.94v-9.84h-6.41v9.84c0,0.39-0.12,0.71-0.37,0.94
			c-0.25,0.23-0.58,0.35-1,0.35C51.29,221.26,50.96,221.14,50.7,220.91z"/>
		<path class="st1" d="M66.39,204.71c-0.31-0.29-0.47-0.66-0.47-1.13c0-0.46,0.16-0.84,0.47-1.11c0.31-0.28,0.73-0.42,1.26-0.42
			c0.51,0,0.93,0.14,1.25,0.42c0.32,0.28,0.48,0.65,0.48,1.11c0,0.47-0.16,0.84-0.47,1.13c-0.31,0.29-0.73,0.43-1.26,0.43
			S66.7,205,66.39,204.71z M66.65,220.94c-0.26-0.21-0.4-0.54-0.4-0.97v-10.89c0-0.43,0.13-0.75,0.4-0.98c0.26-0.22,0.6-0.34,1-0.34
			c0.4,0,0.73,0.11,0.98,0.34c0.26,0.22,0.38,0.55,0.38,0.98v10.89c0,0.43-0.13,0.75-0.38,0.97s-0.58,0.32-0.98,0.32
			C67.25,221.26,66.92,221.15,66.65,220.94z"/>
		<path class="st1" d="M76.36,217.98c-0.63,1.49-1.61,2.57-2.94,3.23c-0.16,0.07-0.36,0.11-0.58,0.11c-0.33,0-0.6-0.1-0.82-0.31
			c-0.22-0.21-0.33-0.45-0.33-0.74c0-0.21,0.06-0.42,0.19-0.63c0.13-0.21,0.3-0.37,0.52-0.5c0.6-0.34,1.07-0.8,1.41-1.38
			c0.34-0.58,0.58-1.35,0.73-2.32c0.15-0.97,0.22-2.23,0.22-3.81v-2.2c0-0.43,0.12-0.77,0.36-1.02c0.24-0.25,0.57-0.38,0.99-0.38
			h7.22c0.44,0,0.78,0.12,1.04,0.35s0.38,0.55,0.38,0.97v10.62c0,0.39-0.12,0.71-0.37,0.94c-0.25,0.23-0.58,0.35-1,0.35
			c-0.42,0-0.76-0.12-1.01-0.35c-0.26-0.23-0.38-0.55-0.38-0.94v-9.84H77.3v1.45C77.3,214.35,76.99,216.48,76.36,217.98z"/>
		<path class="st1" d="M89.15,220.78c-0.26-0.23-0.38-0.55-0.38-0.97v-10.75c0-0.39,0.13-0.71,0.38-0.94
			c0.26-0.23,0.59-0.35,1.01-0.35c0.42,0,0.75,0.12,1,0.35c0.25,0.23,0.37,0.55,0.37,0.94v3.51h2.68c3.43,0,5.15,1.36,5.15,4.08
			c0,1-0.25,1.84-0.75,2.51c-0.5,0.67-1.15,1.17-1.94,1.49c-0.79,0.32-1.65,0.48-2.56,0.48h-3.91
			C89.75,221.13,89.41,221.01,89.15,220.78z M95.71,218.58c0.59-0.41,0.89-1.04,0.89-1.88c0-1.47-1.01-2.2-3.04-2.2h-2.05v4.69h2.05
			C94.4,219.2,95.11,218.99,95.71,218.58z"/>
		<path class="st1" d="M102.5,220.91c-0.26-0.23-0.38-0.55-0.38-0.94v-10.92c0-0.39,0.13-0.71,0.38-0.94
			c0.26-0.23,0.59-0.35,1.01-0.35c0.42,0,0.75,0.12,1,0.35c0.25,0.23,0.37,0.55,0.37,0.94v4.29h6.57v-4.29
			c0-0.39,0.13-0.71,0.38-0.94c0.26-0.23,0.59-0.35,1.01-0.35c0.42,0,0.75,0.12,1,0.35c0.25,0.23,0.37,0.55,0.37,0.94l0.03,10.84
			c0,0.41-0.13,0.74-0.38,0.99c-0.26,0.25-0.59,0.38-1.01,0.38c-0.42,0-0.76-0.13-1.01-0.38c-0.26-0.25-0.38-0.58-0.38-0.99v-4.4
			h-6.57v4.48c0,0.39-0.12,0.71-0.37,0.94c-0.25,0.23-0.58,0.35-1,0.35C103.09,221.26,102.76,221.14,102.5,220.91z"/>
		<path class="st1" d="M120.62,220.48c-0.99-0.55-1.76-1.35-2.3-2.37c-0.54-1.03-0.81-2.22-0.81-3.58c0-1.38,0.27-2.58,0.81-3.61
			c0.54-1.03,1.3-1.82,2.3-2.37c1-0.55,2.15-0.83,3.46-0.83c1.31,0,2.47,0.28,3.46,0.83c0.99,0.55,1.76,1.35,2.3,2.37
			c0.54,1.03,0.81,2.23,0.81,3.61c0,1.36-0.27,2.55-0.81,3.58c-0.54,1.03-1.3,1.82-2.3,2.37c-1,0.55-2.15,0.83-3.46,0.83
			C122.77,221.31,121.62,221.04,120.62,220.48z M126.89,217.99c0.65-0.79,0.97-1.94,0.97-3.46c0-1.5-0.33-2.65-0.98-3.45
			c-0.66-0.8-1.59-1.19-2.79-1.19c-1.2,0-2.14,0.4-2.79,1.19c-0.66,0.8-0.99,1.94-0.99,3.45c0,1.52,0.32,2.67,0.97,3.46
			c0.65,0.79,1.58,1.18,2.81,1.18C125.31,219.17,126.24,218.78,126.89,217.99z"/>
	</g>
	<g>
		<path class="st1" d="M32.84,197.11c-0.15-0.16-0.23-0.38-0.23-0.66v-1.7c0-0.27,0.07-0.48,0.23-0.63
			c0.15-0.15,0.36-0.22,0.64-0.22h0.33c0.31-0.69,0.52-1.45,0.62-2.29c0.11-0.83,0.16-1.77,0.16-2.81v-0.83
			c0-0.27,0.07-0.48,0.22-0.63c0.15-0.15,0.36-0.22,0.63-0.22h4.29c0.28,0,0.49,0.07,0.64,0.22c0.15,0.15,0.22,0.36,0.22,0.63v5.92
			h0.33c0.28,0,0.49,0.07,0.63,0.22c0.15,0.15,0.22,0.36,0.22,0.63v1.7c0,0.27-0.08,0.49-0.23,0.66c-0.15,0.17-0.36,0.25-0.61,0.25
			c-0.26,0-0.47-0.08-0.62-0.24c-0.16-0.16-0.23-0.38-0.23-0.66v-1.12h-5.76v1.12c0,0.27-0.08,0.49-0.23,0.66
			c-0.15,0.17-0.36,0.25-0.62,0.25C33.2,197.36,32.99,197.27,32.84,197.11z M38.77,188.54h-2.58v0.2c0,1.14-0.06,2.12-0.19,2.93
			c-0.13,0.81-0.34,1.56-0.64,2.24h3.41V188.54z"/>
		<path class="st1" d="M48.96,187.18c0.16-0.08,0.39-0.12,0.7-0.12c0.28,0,0.49,0.07,0.64,0.22c0.15,0.15,0.23,0.36,0.23,0.63v6.59
			c0,0.27-0.08,0.49-0.25,0.65s-0.39,0.24-0.67,0.24c-0.28,0-0.5-0.08-0.66-0.24c-0.16-0.16-0.24-0.38-0.24-0.65v-4.77l-3.45,4.91
			c-0.22,0.31-0.42,0.51-0.6,0.61c-0.18,0.1-0.41,0.15-0.71,0.15c-0.28,0-0.49-0.07-0.64-0.22s-0.23-0.36-0.23-0.63v-6.59
			c0-0.27,0.08-0.49,0.25-0.65c0.17-0.16,0.39-0.24,0.67-0.24s0.5,0.08,0.66,0.24s0.24,0.38,0.24,0.65v4.76l3.6-5.09
			C48.64,187.41,48.8,187.26,48.96,187.18z"/>
		<path class="st1" d="M54.71,195.14c-0.17-0.16-0.26-0.38-0.26-0.65v-5.89h-1.92c-0.59,0-0.88-0.25-0.88-0.74
			c0-0.49,0.29-0.73,0.88-0.73h5.7c0.59,0,0.88,0.24,0.88,0.73c0,0.5-0.29,0.74-0.88,0.74h-1.92v5.89c0,0.27-0.08,0.49-0.25,0.65
			c-0.17,0.16-0.39,0.24-0.68,0.24C55.1,195.39,54.88,195.31,54.71,195.14z"/>
		<path class="st1" d="M65.14,195.16c-0.16-0.16-0.24-0.38-0.24-0.65v-2.24H64c-0.59,0-1.05,0.27-1.35,0.81l-1.09,1.87
			c-0.09,0.15-0.2,0.26-0.33,0.33s-0.27,0.11-0.41,0.11c-0.23,0-0.44-0.08-0.62-0.24c-0.19-0.16-0.28-0.35-0.28-0.56
			c0-0.16,0.04-0.3,0.13-0.44l0.7-1.14c0.19-0.31,0.41-0.56,0.66-0.74c0.25-0.18,0.51-0.31,0.78-0.38
			c-0.63-0.11-1.13-0.38-1.49-0.81c-0.36-0.43-0.54-0.91-0.54-1.45c0-0.8,0.27-1.41,0.8-1.85c0.53-0.43,1.29-0.65,2.27-0.65h2.61
			c0.28,0,0.49,0.07,0.64,0.22c0.15,0.15,0.22,0.36,0.22,0.63v6.52c0,0.27-0.08,0.49-0.25,0.65c-0.17,0.16-0.39,0.24-0.67,0.24
			C65.52,195.4,65.3,195.32,65.14,195.16z M64.92,188.52h-1.44c-0.52,0-0.92,0.11-1.19,0.33c-0.27,0.22-0.4,0.52-0.4,0.91
			c0,0.39,0.12,0.67,0.37,0.86c0.25,0.19,0.63,0.28,1.15,0.28h1.51V188.52z"/>
		<path class="st1" d="M68.48,187.31c0.17-0.16,0.39-0.24,0.66-0.24s0.5,0.08,0.66,0.24s0.24,0.38,0.24,0.65v1.67
			c0,0.51,0.14,0.89,0.41,1.12c0.28,0.24,0.71,0.35,1.31,0.35c0.5,0,0.89-0.05,1.17-0.14v-3.01c0-0.27,0.08-0.49,0.25-0.65
			c0.17-0.16,0.38-0.24,0.65-0.24c0.28,0,0.5,0.08,0.67,0.24c0.17,0.16,0.25,0.38,0.25,0.65v6.55c0,0.27-0.08,0.49-0.25,0.65
			c-0.17,0.16-0.39,0.24-0.67,0.24s-0.5-0.08-0.66-0.24c-0.16-0.16-0.24-0.38-0.24-0.65v-2.16c-0.17,0.05-0.41,0.09-0.72,0.13
			c-0.32,0.04-0.6,0.06-0.85,0.06c-0.97,0-1.73-0.21-2.29-0.62c-0.56-0.41-0.84-1.07-0.84-1.96v-1.99
			C68.22,187.69,68.31,187.47,68.48,187.31z"/>
		<path class="st1" d="M84.53,194.6c0,0.22-0.09,0.4-0.27,0.55c-0.18,0.15-0.38,0.23-0.61,0.23c-0.15,0-0.29-0.04-0.43-0.12
			c-0.13-0.08-0.24-0.2-0.31-0.37l-0.63-1.37h-4.02l-0.63,1.37c-0.07,0.16-0.17,0.29-0.3,0.37c-0.13,0.08-0.27,0.12-0.43,0.12
			c-0.23,0-0.44-0.08-0.62-0.23c-0.18-0.15-0.27-0.34-0.27-0.55c0-0.11,0.03-0.23,0.1-0.37l3.21-6.6c0.09-0.19,0.22-0.33,0.39-0.42
			c0.17-0.1,0.36-0.15,0.56-0.15c0.21,0,0.4,0.05,0.57,0.15c0.17,0.1,0.31,0.24,0.4,0.42l3.2,6.6
			C84.5,194.37,84.53,194.49,84.53,194.6z M78.89,192.14h2.77l-1.38-3.02L78.89,192.14z"/>
		<path class="st1" d="M91.05,195.14c-0.17-0.16-0.26-0.38-0.26-0.65v-5.89h-1.92c-0.59,0-0.88-0.25-0.88-0.74
			c0-0.49,0.29-0.73,0.88-0.73h5.7c0.59,0,0.88,0.24,0.88,0.73c0,0.5-0.29,0.74-0.88,0.74h-1.92v5.89c0,0.27-0.08,0.49-0.25,0.65
			c-0.17,0.16-0.39,0.24-0.68,0.24C91.45,195.39,91.22,195.31,91.05,195.14z"/>
		<path class="st1" d="M97.95,194.92c-0.61-0.35-1.09-0.83-1.42-1.47c-0.33-0.63-0.5-1.37-0.5-2.23s0.17-1.6,0.5-2.23
			c0.33-0.63,0.81-1.12,1.42-1.46c0.61-0.34,1.34-0.51,2.17-0.51s1.55,0.17,2.17,0.51c0.61,0.34,1.09,0.83,1.42,1.46
			c0.33,0.63,0.5,1.37,0.5,2.23s-0.17,1.6-0.5,2.23c-0.33,0.63-0.81,1.12-1.42,1.47c-0.61,0.34-1.34,0.52-2.17,0.52
			S98.57,195.26,97.95,194.92z M101.76,193.31c0.4-0.48,0.6-1.17,0.6-2.08s-0.2-1.6-0.59-2.08c-0.4-0.48-0.95-0.72-1.65-0.72
			c-0.7,0-1.25,0.24-1.64,0.72c-0.39,0.48-0.59,1.17-0.59,2.08s0.2,1.6,0.59,2.08c0.4,0.48,0.94,0.72,1.64,0.72
			S101.36,193.79,101.76,193.31z"/>
		<path class="st1" d="M105.79,187.31c0.17-0.16,0.39-0.24,0.66-0.24s0.5,0.08,0.66,0.24s0.24,0.38,0.24,0.65v1.67
			c0,0.51,0.14,0.89,0.41,1.12c0.28,0.24,0.71,0.35,1.31,0.35c0.5,0,0.89-0.05,1.17-0.14v-3.01c0-0.27,0.08-0.49,0.25-0.65
			c0.17-0.16,0.38-0.24,0.65-0.24c0.28,0,0.5,0.08,0.67,0.24c0.17,0.16,0.25,0.38,0.25,0.65v6.55c0,0.27-0.08,0.49-0.25,0.65
			c-0.17,0.16-0.39,0.24-0.67,0.24s-0.5-0.08-0.66-0.24c-0.16-0.16-0.24-0.38-0.24-0.65v-2.16c-0.17,0.05-0.41,0.09-0.72,0.13
			c-0.32,0.04-0.6,0.06-0.85,0.06c-0.97,0-1.73-0.21-2.29-0.62c-0.56-0.41-0.84-1.07-0.84-1.96v-1.99
			C105.54,187.69,105.63,187.47,105.79,187.31z"/>
		<path class="st1" d="M114.2,195.16c-0.17-0.16-0.25-0.38-0.25-0.66v-6.54c0-0.27,0.08-0.49,0.25-0.65
			c0.17-0.16,0.39-0.24,0.67-0.24s0.5,0.08,0.66,0.24s0.24,0.38,0.24,0.65v2.49h0.83l2.53-3.04c0.18-0.23,0.4-0.34,0.67-0.34
			c0.21,0,0.4,0.07,0.56,0.22c0.16,0.15,0.24,0.33,0.24,0.53c0,0.19-0.08,0.37-0.23,0.55l-2.07,2.42c0.29,0.12,0.53,0.24,0.69,0.37
			c0.17,0.13,0.32,0.29,0.46,0.48c0.13,0.19,0.32,0.5,0.57,0.92l0.84,1.49c0.1,0.17,0.14,0.33,0.14,0.49c0,0.24-0.09,0.44-0.26,0.6
			c-0.17,0.16-0.38,0.24-0.61,0.24c-0.32,0-0.57-0.16-0.76-0.49l-1.15-2.04c-0.21-0.36-0.41-0.61-0.62-0.76
			c-0.21-0.15-0.52-0.22-0.93-0.22h-0.9v2.61c0,0.27-0.08,0.49-0.25,0.66c-0.17,0.17-0.38,0.25-0.65,0.25
			C114.59,195.4,114.37,195.32,114.2,195.16z"/>
		<path class="st1" d="M130.66,194.6c0,0.22-0.09,0.4-0.27,0.55c-0.18,0.15-0.38,0.23-0.61,0.23c-0.15,0-0.29-0.04-0.43-0.12
			c-0.13-0.08-0.24-0.2-0.31-0.37l-0.63-1.37h-4.02l-0.63,1.37c-0.07,0.16-0.17,0.29-0.3,0.37c-0.13,0.08-0.27,0.12-0.43,0.12
			c-0.23,0-0.44-0.08-0.62-0.23c-0.18-0.15-0.27-0.34-0.27-0.55c0-0.11,0.03-0.23,0.1-0.37l3.21-6.6c0.09-0.19,0.22-0.33,0.39-0.42
			s0.36-0.15,0.56-0.15c0.21,0,0.4,0.05,0.57,0.15c0.17,0.1,0.31,0.24,0.4,0.42l3.2,6.6C130.62,194.37,130.66,194.49,130.66,194.6z
			 M125.02,192.14h2.77l-1.38-3.02L125.02,192.14z"/>
	</g>
</g>
</svg>
